<svg id="svg" version="1.1" xmlns="http://www.w3.org/2000/svg" xmlns:xlink="http://www.w3.org/1999/xlink" width="400" height="400" viewBox="0, 0, 400,400"><g id="svgg"><path id="path0" d="M227.300 85.125 C 216.055 87.470,208.720 105.539,212.330 122.000 C 216.771 142.252,234.618 138.532,242.112 115.791 C 247.935 98.121,240.343 82.404,227.300 85.125 M185.400 97.706 C 175.786 100.370,174.368 114.075,182.450 126.200 C 191.231 139.372,203.217 140.464,205.499 128.300 C 208.387 112.906,196.398 94.657,185.400 97.706 M277.600 101.325 C 254.741 104.225,232.587 136.044,244.892 148.303 C 256.507 159.874,289.727 144.749,296.393 124.854 C 300.886 111.442,291.406 99.573,277.600 101.325 M164.637 124.218 C 158.975 125.190,156.459 131.217,159.265 137.084 C 163.268 145.454,176.054 150.765,180.793 146.026 C 187.331 139.488,174.734 122.484,164.637 124.218 M209.400 143.016 C 160.864 147.621,120.514 229.211,141.996 279.311 C 161.771 325.432,222.276 321.894,261.902 272.300 C 271.210 260.652,272.552 257.155,269.183 253.328 C 265.746 249.424,260.799 250.452,257.483 255.759 C 234.706 292.223,194.171 309.498,169.500 293.257 C 146.033 277.808,143.364 237.905,163.150 198.300 C 176.561 171.454,195.572 154.939,213.100 154.907 C 226.726 154.882,233.107 163.942,233.097 183.300 C 233.080 215.248,210.924 251.207,194.026 246.709 C 183.371 243.874,182.514 225.981,192.248 209.631 C 196.514 202.466,197.039 199.080,194.204 197.026 C 187.274 192.006,175.857 207.439,173.216 225.400 C 168.492 257.514,196.489 270.892,220.478 247.984 C 242.571 226.887,253.447 183.088,242.302 160.100 C 236.440 148.009,224.132 141.618,209.400 143.016 M220.100 172.671 C 213.829 174.704,209.594 185.563,213.739 188.980 C 216.250 191.050,220.084 189.557,222.930 185.400 C 227.410 178.857,225.636 170.876,220.100 172.671 M251.692 178.537 C 252.112 183.344,250.833 196.022,249.113 204.100 C 248.855 205.310,248.669 206.327,248.700 206.361 C 248.730 206.394,249.912 205.660,251.327 204.729 C 257.738 200.510,261.626 198.774,271.394 195.768 C 274.191 194.908,274.906 194.292,274.886 192.765 C 274.815 187.514,262.194 178.751,252.328 177.103 L 251.556 176.974 251.692 178.537 " stroke="none" fill="#000000" fill-rule="evenodd"></path></g></svg>