0
SECTION
2
HEADER
9
$INSUNITS
70
4
9
$ACADVER
1
AC1014
9
$HANDSEED
5
FFFF
0
ENDSEC
0
SECTION
2
TABLES
0
TABLE
2
VPORT
5
8
100
AcDbSymbolTable
0
ENDTAB
0
TABLE
2
LTYPE
5
5
100
AcDbSymbolTable
0
LTYPE
5
14
100
AcDbSymbolTableRecord
100
AcDbLinetypeTableRecord
2
BYBLOCK
70
0
0
LTYPE
5
15
100
AcDbSymbolTableRecord
100
AcDbLinetypeTableRecord
2
BYLAYER
70
0
0
ENDTAB
0
TABLE
2
LAYER
5
2
100
AcDbSymbolTable
70
2
0
LAYER
5
50
100
AcDbSymbolTableRecord
100
AcDbLayerTableRecord
2
0
70
0
6
CONTINUOUS
0
ENDTAB
0
TABLE
2
STYLE
5
3
100
AcDbSymbolTable
70
1
0
STYLE
5
11
100
AcDbSymbolTableRecord
100
AcDbTextStyleTableRecord
2
STANDARD
70
0
0
ENDTAB
0
TABLE
2
VIEW
5
6
100
AcDbSymbolTable
70
0
0
ENDTAB
0
TABLE
2
UCS
5
7
100
AcDbSymbolTable
70
0
0
ENDTAB
0
TABLE
2
APPID
5
9
100
AcDbSymbolTable
70
2
0
APPID
5
12
100
AcDbSymbolTableRecord
100
AcDbRegAppTableRecord
2
ACAD
70
0
0
ENDTAB
0
TABLE
2
DIMSTYLE
5
A
100
AcDbSymbolTable
70
1
0
ENDTAB
0
TABLE
2
BLOCK_RECORD
5
1
100
AcDbSymbolTable
70
1
0
BLOCK_RECORD
5
1F
100
AcDbSymbolTableRecord
100
AcDbBlockTableRecord
2
*MODEL_SPACE
0
BLOCK_RECORD
5
1B
100
AcDbSymbolTableRecord
100
AcDbBlockTableRecord
2
*PAPER_SPACE
0
ENDTAB
0
ENDSEC
0
SECTION
2
BLOCKS
0
BLOCK
5
20
100
AcDbEntity
100
AcDbBlockBegin
2
*MODEL_SPACE
0
ENDBLK
5
21
100
AcDbEntity
100
AcDbBlockEnd
0
BLOCK
5
1C
100
AcDbEntity
100
AcDbBlockBegin
2
*PAPER_SPACE
0
ENDBLK
5
1D
100
AcDbEntity
100
AcDbBlockEnd
0
ENDSEC
0
SECTION
2
ENTITIES
0
CIRCLE
5
100
100
AcDbEntity
8
0
100
AcDbCircle
10
0
20
136
30
0
40
1.5500000000000052
210
0
220
0
230
1
0
CIRCLE
5
101
100
AcDbEntity
8
0
100
AcDbCircle
10
192.99999999999997
20
136
30
0
40
1.5500000000000114
210
0
220
0
230
1
0
CIRCLE
5
102
100
AcDbEntity
8
0
100
AcDbCircle
10
192.99999999999997
20
0
30
0
40
1.5500000000000114
210
0
220
0
230
1
0
CIRCLE
5
103
100
AcDbEntity
8
0
100
AcDbCircle
10
0
20
0
30
0
40
1.5500000000000052
210
0
220
0
230
1
0
CIRCLE
5
104
100
AcDbEntity
8
0
100
AcDbCircle
10
113.49999999999997
20
139.5
30
0
40
1.5500000000000114
210
0
220
0
230
1
0
CIRCLE
5
105
100
AcDbEntity
8
0
100
AcDbCircle
10
35.499999999999993
20
105.5
30
0
40
1.5500000000000069
210
0
220
0
230
1
0
CIRCLE
5
106
100
AcDbEntity
8
0
100
AcDbCircle
10
-2.5000000000000093
20
105.5
30
0
40
1.5500000000000052
210
0
220
0
230
1
0
CIRCLE
5
107
100
AcDbEntity
8
0
100
AcDbCircle
10
35.499999999999993
20
143.5
30
0
40
1.5500000000000069
210
0
220
0
230
1
0
CIRCLE
5
108
100
AcDbEntity
8
0
100
AcDbCircle
10
-2.5000000000000089
20
143.5
30
0
40
1.5500000000000052
210
0
220
0
230
1
0
CIRCLE
5
109
100
AcDbEntity
8
0
100
AcDbCircle
10
184.5
20
139.5
30
0
40
1.5500000000000114
210
0
220
0
230
1
0
CIRCLE
5
110
100
AcDbEntity
8
0
100
AcDbCircle
10
184.5
20
53.500000000000014
30
0
40
1.5500000000000114
210
0
220
0
230
1
0
CIRCLE
5
111
100
AcDbEntity
8
0
100
AcDbCircle
10
113.49999999999997
20
53.500000000000014
30
0
40
1.5500000000000114
210
0
220
0
230
1
0
LWPOLYLINE
5
112
100
AcDbEntity
8
0
100
AcDbPolyline
90
8
70
1
43
0.0
10
34.499999999999972
20
68.999999999999986
10
23.499999999999979
20
68.999999999999986
42
0.4142135623730937
10
21.499999999999979
20
67
10
21.499999999999979
20
10.999999999999998
42
0.41421356237309503
10
23.499999999999979
20
9
10
34.499999999999972
20
8.9999999999999964
42
0.41421356237309503
10
36.499999999999979
20
10.999999999999996
10
36.499999999999979
20
67
42
0.41421356237309503
0
CIRCLE
5
113
100
AcDbEntity
8
0
100
AcDbCircle
10
155
20
27
30
0
40
1.5500000000000114
210
0
220
0
230
1
0
CIRCLE
5
114
100
AcDbEntity
8
0
100
AcDbCircle
10
73.999999999999986
20
19
30
0
40
1.5500000000000025
210
0
220
0
230
1
0
CIRCLE
5
115
100
AcDbEntity
8
0
100
AcDbCircle
10
74
20
74
30
0
40
1.5500000000000025
210
0
220
0
230
1
0
CIRCLE
5
116
100
AcDbEntity
8
0
100
AcDbCircle
10
155
20
7.0000000000000018
30
0
40
1.5500000000000114
210
0
220
0
230
1
0
CIRCLE
5
117
100
AcDbEntity
8
0
100
AcDbCircle
10
175
20
7.0000000000000018
30
0
40
1.5500000000000114
210
0
220
0
230
1
0
CIRCLE
5
118
100
AcDbEntity
8
0
100
AcDbCircle
10
175
20
27
30
0
40
1.5500000000000114
210
0
220
0
230
1
0
CIRCLE
5
119
100
AcDbEntity
8
0
100
AcDbCircle
10
180.99999999999997
20
27
30
0
40
1.5500000000000114
210
0
220
0
230
1
0
CIRCLE
5
120
100
AcDbEntity
8
0
100
AcDbCircle
10
180.99999999999997
20
6.9999999999999973
30
0
40
1.5500000000000114
210
0
220
0
230
1
0
CIRCLE
5
121
100
AcDbEntity
8
0
100
AcDbCircle
10
200.99999999999997
20
6.9999999999999973
30
0
40
1.5500000000000114
210
0
220
0
230
1
0
CIRCLE
5
122
100
AcDbEntity
8
0
100
AcDbCircle
10
200.99999999999997
20
27
30
0
40
1.5500000000000114
210
0
220
0
230
1
0
LWPOLYLINE
5
123
100
AcDbEntity
8
0
100
AcDbPolyline
90
8
70
1
43
0.0
10
197
20
34
10
197
20
45
42
0.41421356237309503
10
195
20
47
10
149
20
47
42
0.41421356237309503
10
147
20
45
10
147
20
34
42
0.41421356237309503
10
149
20
32
10
195
20
32
42
0.41421356237309503
0
LWPOLYLINE
5
124
100
AcDbEntity
8
0
100
AcDbPolyline
90
8
70
1
43
0.0
10
209
20
-0.99999999999999922
42
-0.41421356237309437
10
204
20
-6.0000000000000009
10
-10.999999999999996
20
-5.9999999999999964
42
-0.41421356237309503
10
-15.999999999999996
20
-0.99999999999999645
10
-15.999999999999995
20
144
42
-0.41421356237309387
10
-11.000000000000014
20
149
10
204
20
149
42
-0.41421356237309398
10
209
20
144
0
ENDSEC
0
SECTION
2
OBJECTS
0
DICTIONARY
5
C
100
AcDbDictionary
3
ACAD_GROUP
350
D
3
ACAD_MLINESTYLE
350
17
0
DICTIONARY
5
D
100
AcDbDictionary
0
DICTIONARY
5
1A
330
C
100
AcDbDictionary
0
DICTIONARY
5
17
100
AcDbDictionary
0
ENDSEC
0
EOF
